<?xml version="1.0" encoding="UTF-8"?>
<svg width="168px" height="274px" viewBox="0 0 168 274" version="1.1" xmlns="http://www.w3.org/2000/svg" xmlns:xlink="http://www.w3.org/1999/xlink">
    <!-- Generator: Sketch 50.2 (55047) - http://www.bohemiancoding.com/sketch -->
    <title>logo</title>
    <desc>Created with Sketch.</desc>
    <defs></defs>
    <g id="Page-1" stroke="none" stroke-width="1" fill="none" fill-rule="evenodd">
        <g id="Woodpeckerbar" transform="translate(-594.000000, -176.000000)" fill="#FFFFFF" fill-rule="nonzero">
            <g id="Topline">
                <g id="logo" transform="translate(594.000000, 176.000000)">
                    <g id="Group">
                        <polygon id="Shape" points="120.252632 203.324464 167.705263 224.844635 163.225263 234.546352 122.787368 216.083691"></polygon>
                        <path d="M23.4610526,160.166524 L81.9957895,186.096567 C83.0568421,190.330043 84.2357895,194.739914 85.4147368,199.208584 L0.530526316,161.224893 L23.4610526,160.166524 Z" id="Shape"></path>
                        <path d="M58.1810526,199.384979 C34.5431579,212.555794 21.28,194.622318 21.28,194.622318 C42.6189474,181.216309 58.1810526,199.384979 58.1810526,199.384979 Z" id="Shape"></path>
                        <path d="M77.6336842,204.735622 C69.9115789,226.608584 47.5705263,221.963519 47.5705263,221.963519 C53.9957895,200.502146 77.6336842,204.735622 77.6336842,204.735622 Z" id="Shape"></path>
                        <path d="M111.410526,186.860944 L114.357895,200.854936 L116.892632,213.614163 L128.682105,274 C128.682105,274 120.016842,270.5897 109.465263,253.479399 C104.454737,245.365236 97.7936842,223.374678 92.1936842,202.560086 C91.0147368,198.091416 89.8357895,193.681545 88.7747368,189.448069 C84.3536842,172.102575 81.3473684,160.048927 81.3473684,160.048927 C81.3473684,160.048927 97.5578947,174.630901 111.410526,186.860944 Z" id="Shape"></path>
                        <path d="M137.347368,198.796996 C134.753684,200.854936 132.101053,200.090558 129.743158,198.091416 C128.210526,196.797854 123.966316,191.917597 118.071579,185.508584 C108.993684,175.68927 77.5747368,148.818455 74.9810526,146.819313 C66.4336842,140.116309 58.4757895,132.825322 51.8147368,124.240773 C37.3726316,105.601717 34.3073684,76.8493562 56.2357895,62.2085837 C57.2378947,61.5618026 61.8947368,57.1519313 65.7263158,53.2712446 C70.56,59.8566524 78.6947368,67.3828326 91.0147368,68.3824034 C91.6631579,68.4412017 92.3115789,68.4412017 92.96,68.4412017 C96.8505263,68.4412017 100.8,67.4416309 104.690526,65.795279 C104.749474,66.3832618 104.749474,66.9712446 104.808421,67.5592275 C112.235789,113.657082 125.145263,144.52618 133.574737,182.686266 C134.223158,185.390987 136.934737,196.209871 137.347368,198.796996 Z" id="Shape"></path>
                        <path d="M79.2252632,20.2266094 L84.3536842,19.4034335 C84.4715789,19.4034335 97.0273684,17.7570815 105.692632,22.4021459 C107.166316,23.1665236 109.524211,24.9892704 110.172632,25.4008584 C110.172632,25.4008584 110.172632,25.4008584 110.172632,25.4008584 C110.172632,25.4008584 110.172632,25.4008584 110.172632,25.4008584 C109.995789,26.1652361 109.288421,29.0463519 108.64,30.5751073 C104.926316,39.6300429 94.1978947,46.3918455 94.1389474,46.4506438 L89.7178947,49.0965665 L94.6694737,50.6253219 C99.3852632,52.095279 103.806316,55.211588 106.458947,59.5038627 C102.273684,61.5618026 97.7347368,62.8553648 93.0778947,62.8553648 C82.7621053,62.7965665 73.0357895,55.7995708 68.1431579,46.8034335 C61.4231579,45.8626609 52.2863158,44.3339056 44.3284211,42.6875536 C34.4842105,40.6296137 13.6168421,37.9248927 8.01684211,31.751073 C7.30947368,30.927897 6.89684211,30.0459227 6.77894737,29.1639485 C14.1473684,28.8111588 21.28,28.3407725 28.3536842,27.9879828 C41.0273684,27.4 54.3494737,27.9291845 63.6631579,26.6356223 C64.3115789,19.2858369 67.4947368,12.1124464 73.0947368,7.40858369 C76.6905263,4.40987124 80.9936842,2.52832618 85.5326316,1.46995708 C86.24,6.40901288 84.8252632,11.6420601 82.1136842,15.8167382 L79.2252632,20.2266094 Z" id="Shape"></path>
                        <path d="M137.524211,19.2858369 C136.581053,24.1072961 134.4,30.1635193 130.922105,35.6905579 C128.387368,34.2793991 121.018947,30.516309 113.768421,29.7519313 C114.357895,27.811588 114.829474,24.5188841 114.947368,23.7545064 C114.416842,23.2841202 111.882105,21.0497854 110.231579,19.8738197 C115.36,14.6407725 118.602105,7.11459227 119.663158,4.35107296 C125.852632,6.40901288 131.393684,9.64291845 135.225263,12.8180258 C136.286316,13.7 137.583158,15.0523605 137.936842,15.4639485 C137.936842,15.4639485 137.936842,15.4639485 137.936842,15.4639485 C137.936842,15.4639485 137.936842,15.4639485 137.936842,15.4639485 C137.877895,16.0519313 137.76,17.9334764 137.524211,19.2858369 Z" id="Shape"></path>
                        <path d="M100.092632,47.9793991 C103.688421,45.2746781 109.052632,40.4532189 112.058947,34.2206009 C118.425263,34.5145923 125.557895,38.0424893 128.328421,39.5124464 C123.376842,46.3330472 117.010526,52.8008584 110.290526,57.2107296 C108.286316,54.0944206 105.103158,50.5077253 100.092632,47.9793991 Z" id="Shape"></path>
                        <path d="M106.046316,17.4630901 C99.7389474,14.523176 92.5473684,14.2291845 88.0673684,14.4643777 C90.3073684,9.34892704 90.4842105,4.52746781 90.0126316,0.881974249 C98.0294737,4.99600361e-15 107.048421,0.940772532 115.183158,3.05751073 C114.004211,5.93862661 110.762105,13.1708155 106.046316,17.4630901 Z" id="Shape"></path>
                    </g>
                </g>
            </g>
        </g>
    </g>
</svg>