<svg xmlns="http://www.w3.org/2000/svg" width="66" height="63" viewBox="0 0 66 63">
    <g fill="#FFF" fill-rule="nonzero">
        <path d="M35.61 31.51l7.344 3.335-.693 1.503-6.258-2.86zM20.63 24.821l9.06 4.019c.164.656.346 1.34.529 2.032l-13.137-5.887 3.549-.164zM26.004 30.9c-3.658 2.04-5.71-.739-5.71-.739 3.302-2.077 5.71.738 5.71.738zM29.015 31.728c-1.195 3.39-4.653 2.67-4.653 2.67.994-3.326 4.653-2.67 4.653-2.67zM34.242 28.958l.456 2.169.393 1.977 1.824 9.358s-1.341-.528-2.974-3.18c-.775-1.257-1.806-4.665-2.673-7.89-.182-.693-.365-1.377-.53-2.033-.683-2.688-1.149-4.556-1.149-4.556s2.51 2.26 4.653 4.155zM38.256 30.808c-.401.319-.812.2-1.177-.11-.237-.2-.894-.956-1.806-1.95-1.405-1.521-6.267-5.685-6.669-5.995-1.323-1.039-2.554-2.169-3.585-3.5-2.235-2.888-2.71-7.343.684-9.612.155-.1.876-.784 1.469-1.385.748 1.02 2.007 2.186 3.914 2.341.1.01.2.01.3.01.603 0 1.214-.155 1.816-.41.01.09.01.182.018.273 1.15 7.144 3.148 11.928 4.452 17.841.1.42.52 2.096.584 2.497z"/>
        <path d="M29.261 3.135l.794-.128c.018 0 1.961-.255 3.302.465.228.118.593.4.694.464a6.32 6.32 0 0 1-.238.802c-.574 1.404-2.235 2.451-2.244 2.46l-.684.41.766.238c.73.227 1.414.71 1.825 1.375-.648.32-1.35.52-2.071.52-1.597-.01-3.102-1.094-3.859-2.488a62.026 62.026 0 0 1-3.686-.638c-1.523-.319-4.753-.738-5.62-1.694a.777.777 0 0 1-.19-.401c1.14-.055 2.243-.128 3.338-.183 1.961-.09 4.023-.009 5.465-.21.1-1.138.593-2.25 1.46-2.979.556-.465 1.222-.756 1.924-.92.11.765-.11 1.576-.529 2.223l-.447.684zM38.284 2.989a7.768 7.768 0 0 1-1.022 2.542c-.393-.219-1.533-.802-2.655-.92.091-.301.164-.811.182-.93a11.24 11.24 0 0 0-.73-.601c.794-.811 1.296-1.977 1.46-2.406.958.32 1.816.82 2.409 1.312.164.137.365.347.42.41-.01.092-.028.383-.064.593z"/>
        <path d="M32.49 7.435c.557-.419 1.387-1.166 1.852-2.132.986.046 2.09.593 2.518.82-.766 1.057-1.751 2.06-2.791 2.743a4.013 4.013 0 0 0-1.578-1.43zM33.412 2.706c-.976-.455-2.09-.5-2.783-.464.347-.793.375-1.54.302-2.105 1.24-.137 2.636.009 3.895.337-.182.446-.684 1.567-1.414 2.232z"/>
        <g>
            <path d="M3.218 45.034c0-.098.064-.355-.054-.409-.136-.071-.29.09-.716.463l-1.016.871c-.353.303-.562.534-1.042.294-.417-.205-.39-.516-.354-.916l.4-4.118c.063-.623-.373-.499-.146-.943.254-.498 1.26-.018 1.605.15 1.079.535 1.178.793 1.024 1.095-.109.213-.299.16-.417.382-.109.214-.154.854-.163.952-.027.134-.118.72.045.81.19.097.617-.347.707-.436.046-.036.218-.187.245-.232.037-.062.11-.587-.045-.827-.109-.142-.181-.311-.09-.489.017-.044.144-.525 1.686.24 1.432.712 1.233 1.023 1.169 1.148-.127.24-.49.142-.58.32-.1.196-.082.765-.09.96-.01.143-.082.668.099.756.254.125 1.206-.951 1.251-1.05.163-.31-.399-.39-.2-.79.227-.445.97-.045 1.27.106.299.151.834.463.625.863-.181.356-.444.107-.906.516l-2.947 2.624c-.353.31-.716.604-1.142.4-.372-.187-.39-.436-.363-.81l.145-1.93zM7.652 46.342c.516-1.646 2.212-2.41 3.934-1.886 2.185.658 2.43 2.793 2.122 3.79-.517 1.671-2.367 2.32-3.98 1.832-1.668-.499-2.593-2.082-2.076-3.736zm3.209-.845c-.444-.134-.807.249-.925.631-.208.659-.308 2.66.544 2.909.48.142.816-.205.943-.623.227-.702.363-2.641-.562-2.917zM14.197 48.272c.327-1.69 1.94-2.624 3.708-2.295 2.24.418 2.73 2.517 2.52 3.55-.335 1.716-2.094 2.552-3.753 2.24-1.713-.32-2.801-1.796-2.475-3.495zm3.1-1.183c-.452-.089-.77.338-.851.72-.136.676-.019 2.678.86 2.838.5.089.79-.294.871-.72.154-.721.073-2.66-.88-2.838zM21.722 48.085c.1-.827-.562-.489-.508-1.014.037-.373.517-.382.807-.356l2.684.258c2.284.214 2.9 1.681 2.756 3.131-.145 1.503-1.188 2.829-3.264 2.633a23.666 23.666 0 0 1-.907-.107c-.253-.035-.48-.062-.707-.08l-.698-.053a9.19 9.19 0 0 1-.698-.045c-.281-.026-.616-.195-.59-.515.055-.579.644.124.79-1.05l.335-2.802zm1.686 3.14c-.036.41.01.587.454.631 1.033.098 1.323-.925 1.396-1.734.19-1.886-.508-2.26-1.143-2.313-.344-.035-.38.098-.417.41l-.29 3.006zM28.63 48.548c.01-.605-.761-.356-.752-.863.009-.32.371-.391.625-.391.209 0 .408.026.608.026 1.196.018 1.93-.08 2.275-.08 1.124.018 2.194.676 2.176 1.895-.018 1.21-1.07 1.84-2.221 1.823-.245 0-.499-.044-.716-.053-.1 0-.136.035-.136.124l-.01.472c.01 1.014.617.605.608 1.076-.009.525-1.197.534-1.568.525-.345-.01-1.569-.036-1.56-.56.01-.445.608-.16.617-.828l.054-3.166zm2.221-.356c-.326-.009-.317.089-.317.258l-.018 1.218c0 .17-.082.356.363.365.544.009.77-.391.78-.89 0-.515-.255-.942-.808-.951zM37.034 47.214c1.106-.063 1.251-.232 1.387-.24.472-.027.717.755.735 1.111.018.267-.073.587-.4.605-.652.036-.162-.774-1.74-.685-.915.053-.816.205-.761 1.139.027.471.054.48.553.453.625-.035.108-.907.689-.943.48-.026.562.89.58 1.201.018.33.018 1.308-.48 1.334-.508.027-.046-.853-.88-.809-.344.018-.317.33-.308.587.063 1.183.145 1.12 1.015 1.076 1.696-.089 1.152-1.21 1.831-1.245.263-.018.418.267.427.498.027.552-.363 1.566-.69 1.583-.054 0-.19-.017-.362-.026a6.023 6.023 0 0 0-.698 0l-3.39.186c-.545.027-.572-.213-.572-.32-.027-.444.553-.115.562-.978.018-1.477.036-1.334-.136-2.793-.127-1.236-.716-.56-.752-1.139-.028-.498.67-.453 1.006-.471l2.384-.124zM42.719 46.546c.807-.106 1.378.223 1.586.196.182-.027.218-.089.363-.107.344-.044.852.4.979 1.299.063.462-.163.88-.644.943-.843.107-.825-1.343-2.284-1.148-.635.08-.816.694-.753 1.139.163 1.192.952 2.117 2.094 1.966 1.043-.134 1.125-.712 1.378-.748.236-.026.39.232.417.427.046.356-.226 1.148-.634 1.201-.281.036-.789.578-1.759.703-1.722.222-3.318-.925-3.536-2.544-.235-1.646 1.17-3.113 2.793-3.327zM50.107 49.98c-.172-.125-.788-.596-.97-.552-.208.045-.19.258-.136.49l.037.168c.09.383.607.294.698.685.063.25-.073.534-1.487.854-1.27.294-1.487.116-1.55-.151-.1-.41.353-.294.299-.97-.036-.462-.145-.969-.254-1.414-.118-.489-.245-1.058-.444-1.52-.263-.659-.626-.268-.735-.748-.027-.124-.208-.551 1.56-.96.38-.09 1.215-.285 1.341.257.1.419-.398.267-.18 1.201.026.107.09.33.235.294.217-.054.662-1.005.616-1.192-.036-.17-.19-.214-.226-.391-.136-.588.934-.801 1.314-.89.39-.089 1.315-.347 1.442.222.154.65-.78.454-.988.792-.127.196-.69.836-.617 1.165.054.214.29.356.453.48l2.13 1.504c.31.213.79.07.907.551.091.392-.308.525-.625.605l-1.369.311c-.317.071-.326.054-.743-.266l-.708-.525zM55.411 43.629c1.043-.365 1.133-.57 1.26-.614.444-.16.907.525 1.025.863.09.25.1.587-.2.694-.616.213-.39-.694-1.867-.17-.862.303-.726.428-.4 1.308.164.445.191.454.662.285.59-.205-.163-.898.39-1.094.454-.16.798.694.907.987.118.312.399 1.245-.073 1.414-.48.17-.29-.8-1.078-.524-.327.115-.209.4-.127.649.408 1.112.471 1.032 1.287.747 1.596-.56.752-1.476 1.387-1.708.245-.089.471.143.553.356.19.516.109 1.601-.2 1.708-.054.018-.19.044-.362.071-.172.045-.399.098-.67.196l-3.201 1.13c-.517.177-.608-.045-.644-.143-.154-.418.499-.267.254-1.103-.417-1.423-.363-1.29-.943-2.642-.48-1.147-.852-.338-1.051-.88-.173-.463.507-.623.834-.73l2.257-.8zM58.938 44.127c-.617-1.103-.916-.356-1.16-.792-.218-.39.317-.747.607-.898.154-.08.308-.142.462-.222.154-.063.317-.134.462-.205.236-.124.454-.267.69-.409.226-.133.462-.276.688-.4.825-.436 1.968-.587 2.493.356.236.426.254.951-.045 1.36-.045.072-.081.116-.036.205.063.107.172.089.28.071.608-.089 1.016.125 1.551.836.454.614.707-.035.943.4.154.267-.027.739-.843 1.175-1.16.622-1.668.044-2.42-.774-.264-.285-.563-.543-.962-.33-.163.09-.208.143.046.588.118.204.29.48.435.667.236.293.553 0 .743.338.145.258.064.542-1.106 1.174-.344.187-1.378.738-1.668.213-.208-.373.48-.409-.036-1.334l-1.124-2.019zm1.867-.587c.09.196.136.374.381.24.471-.249.48-.587.236-1.032-.19-.346-.48-.658-.898-.435-.272.142-.172.302-.063.533l.344.694z"/>
            <g>
                <path d="M31.114 59.248c.263-.56.599-1.28.599-1.93 0-.56.272-.988 1.006-.988.725 0 1.179.73 1.505 1.272.145.24 1.396 2.74 1.695 3.416.272.623.726.249.726.711 0 .596-1.188.57-1.605.57-1.188 0-1.913-.01-1.913-.516 0-.392.508-.25.508-.534 0-.365-.209-.4-1.55-.4-.436 0-.69.018-.69.418 0 .32.535.107.535.534 0 .489-.897.498-1.233.498-1.187 0-1.296-.223-1.296-.48 0-.383.453-.267.689-.561.181-.222.362-.614.48-.872l.544-1.138zm1.75.587c.082 0 .335.018.335-.107 0-.124-.244-.551-.308-.667-.072-.133-.217-.436-.399-.436-.2 0-.344.49-.371.578-.037.09-.173.41-.173.507 0 .143.209.116.3.116l.616.009zM28.331 59.168c-.027-.018-.054-.027-.09-.045-.1-.053-.218-.089-.336-.124a3.253 3.253 0 0 0-.889-.116c-.28 0-.543.01-.788.027-.145.009-.29.009-.426.009l-.018-.507c0-.943-.091-1.103.834-1.103 1.586 0 1.051.783 1.704.783.326 0 .435-.32.435-.587 0-.356-.2-1.166-.67-1.166-.137 0-.29.16-1.406.16h-2.402c-.345 0-1.043-.08-1.043.418 0 .579.635-.062.689 1.183.082 1.477.073 1.335-.027 2.82-.055.863-.626.507-.626.96 0 .107.01.356.562.356h3.427v-.008a3.32 3.32 0 0 0 .653-.107c.127-.036.236-.08.335-.125.028-.017.064-.026.091-.044.608-.33.898-.854.898-1.388-.018-.525-.3-1.076-.907-1.396zm-2.466.818c.01-.169.064-.302.326-.302.58 0 .735.444.735.943 0 .426-.163.747-.644.747-.263 0-.417-.027-.417-.97v-.418zM37.732 57.718c0-.614-.78-.347-.78-.854 0-.329.363-.4.626-.4.209 0 .408.018.617.018 1.206 0 1.94-.116 2.293-.116 1.134 0 2.222.65 2.222 1.877 0 1.218-1.052 1.877-2.212 1.877-.254 0-.5-.045-.726-.045-.1 0-.136.045-.136.133v.472c.027 1.023.635.596.635 1.067 0 .534-1.197.56-1.578.56-.353 0-1.586-.008-1.586-.542 0-.454.607-.169.607-.845v-3.202h.018zm2.24-.391c-.327 0-.318.097-.318.258v1.227c0 .169-.072.356.372.356.553 0 .77-.41.77-.907 0-.516-.271-.934-.824-.934z"/>
            </g>
        </g>
    </g>
</svg>
